<?xml version="1.0" encoding="utf-8"?>
<!-- Generator: Adobe Illustrator 22.0.0, SVG Export Plug-In . SVG Version: 6.00 Build 0)  -->
<svg version="1.1" id="图层_1" xmlns="http://www.w3.org/2000/svg" xmlns:xlink="http://www.w3.org/1999/xlink" x="0px" y="0px"
	 viewBox="0 0 16 16.1" style="enable-background:new 0 0 16 16.1;" xml:space="preserve">
<style type="text/css">
	.st0{fill:#FAC552;}
	.st1{fill:#014A51;}
</style>
<path class="st0" d="M3.6,0.1h8.7c2,0,3.6,1.6,3.6,3.6v8.7c0,2-1.6,3.6-3.6,3.6H3.6c-2,0-3.6-1.6-3.6-3.6V3.7
	C0.1,1.7,1.7,0.1,3.6,0.1z"/>
<path class="st1" d="M6,4.1c-0.6,0-0.9,0.3-0.9,0.9v5.1c0,0.7-0.2,1.1-0.7,1c-0.2,0-0.4-0.1-0.7-0.2c-0.3-0.2-0.5-0.2-0.7-0.2
	c-0.3,0.1-0.5,0.3-0.6,0.7c0.1,0.8,0.8,1.2,2.2,1.3c1.5,0,2.3-0.8,2.3-2.4V5.1C6.9,4.5,6.6,4.2,6,4.1L6,4.1z M11,7.5
	c-0.9-0.3-1.4-0.6-1.4-0.9c0-0.5,0.3-0.7,1-0.7c0.4,0,0.7,0.1,0.9,0.2c0.3,0.1,0.5,0.1,0.7,0.1c0.5,0,0.7-0.3,0.8-0.9
	c-0.1-0.7-0.8-1.1-2.3-1.2C8.8,4.3,7.8,5.2,7.7,6.8c0,1.1,0.8,1.9,2.5,2.3c1,0.3,1.5,0.6,1.5,1c0,0.7-0.4,1-1.2,1
	c-0.3,0-0.7-0.1-1.2-0.2c-0.3-0.1-0.5-0.2-0.8-0.2c-0.5,0.1-0.8,0.3-0.8,0.8c0,0.8,1,1.2,2.9,1.3c1.9-0.1,3-1,3.1-2.7
	C13.6,8.9,12.7,8,11,7.5L11,7.5z"/>
</svg>
